<mxfile host="app.diagrams.net">
  <diagram name="Notification Model Table ERD" id="notification-model-table-erd">
    <mxGraphModel dx="692" dy="402" grid="1" gridSize="10" guides="1" tooltips="1" connect="1" arrows="1" fold="1" page="1" pageScale="1" pageWidth="900" pageHeight="470" math="0" shadow="0">
      <root>
        <mxCell id="0" />
        <mxCell id="1" parent="0" />
        <!-- Tiêu đề lớn -->
        <mxCell id="bigTitle" value="NOTIFICATION MODEL - ERD TABLE" style="text;html=1;strokeColor=none;fillColor=none;align=center;fontSize=24;fontStyle=1;fontColor=#4472C4;" parent="1" vertex="1">
          <mxGeometry x="50" y="20" width="800" height="50" as="geometry" />
        </mxCell>
        <!-- Bảng ERD -->
        <mxCell id="notificationTable" value="" style="shape=table;startSize=0;container=1;collapsible=0;childLayout=tableLayout;fixedRows=1;rowLines=0;fontStyle=1;align=center;resizeLast=1;strokeColor=#000000;fillColor=#ffffff;" parent="1" vertex="1">
          <mxGeometry x="50" y="80" width="800" height="340" as="geometry" />
        </mxCell>
        <!-- Header -->
        <mxCell id="header" value="" style="shape=tableRow;horizontal=0;fillColor=#4472C4;strokeColor=#000000;" parent="notificationTable" vertex="1">
          <mxGeometry width="800" height="40" as="geometry" />
        </mxCell>
        <mxCell id="h1" value="Tên trường" style="shape=partialRectangle;connectable=0;fillColor=#4472C4;align=center;fontStyle=1;fontSize=12;fontColor=#ffffff;" parent="header" vertex="1"><mxGeometry width="120" height="40" as="geometry" /></mxCell>
        <mxCell id="h2" value="Kiểu dữ liệu" style="shape=partialRectangle;connectable=0;fillColor=#4472C4;align=center;fontStyle=1;fontSize=12;fontColor=#ffffff;" parent="header" vertex="1"><mxGeometry x="120" width="90" height="40" as="geometry" /></mxCell>
        <mxCell id="h3" value="Ràng buộc/Enum" style="shape=partialRectangle;connectable=0;fillColor=#4472C4;align=center;fontStyle=1;fontSize=12;fontColor=#ffffff;" parent="header" vertex="1"><mxGeometry x="210" width="180" height="40" as="geometry" /></mxCell>
        <mxCell id="h4" value="Giá trị mặc định" style="shape=partialRectangle;connectable=0;fillColor=#4472C4;align=center;fontStyle=1;fontSize=12;fontColor=#ffffff;" parent="header" vertex="1"><mxGeometry x="390" width="110" height="40" as="geometry" /></mxCell>
        <mxCell id="h5" value="Mô tả" style="shape=partialRectangle;connectable=0;fillColor=#4472C4;align=center;fontStyle=1;fontSize=12;fontColor=#ffffff;" parent="header" vertex="1"><mxGeometry x="500" width="300" height="40" as="geometry" /></mxCell>
        <!-- Data Rows -->
        <mxCell id="row1" value="" style="shape=tableRow;horizontal=0;fillColor=#FFE6CC;strokeColor=#000000;" parent="notificationTable" vertex="1"><mxGeometry y="40" width="800" height="24" as="geometry" /></mxCell>
        <mxCell id="r1c1" value="_id" style="shape=partialRectangle;connectable=0;fillColor=#FFE6CC;align=left;fontStyle=1;" parent="row1" vertex="1"><mxGeometry width="120" height="24" as="geometry" /></mxCell>
        <mxCell id="r1c2" value="ObjectId" style="shape=partialRectangle;connectable=0;fillColor=#FFE6CC;align=left;" parent="row1" vertex="1"><mxGeometry x="120" width="90" height="24" as="geometry" /></mxCell>
        <mxCell id="r1c3" value="Primary Key" style="shape=partialRectangle;connectable=0;fillColor=#FFE6CC;align=left;" parent="row1" vertex="1"><mxGeometry x="210" width="180" height="24" as="geometry" /></mxCell>
        <mxCell id="r1c4" value="Tự động" style="shape=partialRectangle;connectable=0;fillColor=#FFE6CC;align=left;" parent="row1" vertex="1"><mxGeometry x="390" width="110" height="24" as="geometry" /></mxCell>
        <mxCell id="r1c5" value="Khóa chính MongoDB" style="shape=partialRectangle;connectable=0;fillColor=#FFE6CC;align=left;" parent="row1" vertex="1"><mxGeometry x="500" width="300" height="24" as="geometry" /></mxCell>
        <mxCell id="row2" value="" style="shape=tableRow;horizontal=0;fillColor=#E6F3FF;strokeColor=#000000;" parent="notificationTable" vertex="1"><mxGeometry y="64" width="800" height="24" as="geometry" /></mxCell>
        <mxCell id="r2c1" value="user_id" style="shape=partialRectangle;connectable=0;fillColor=#E6F3FF;align=left;" parent="row2" vertex="1"><mxGeometry width="120" height="24" as="geometry" /></mxCell>
        <mxCell id="r2c2" value="ObjectId" style="shape=partialRectangle;connectable=0;fillColor=#E6F3FF;align=left;" parent="row2" vertex="1"><mxGeometry x="120" width="90" height="24" as="geometry" /></mxCell>
        <mxCell id="r2c3" value="ref: User, required, index" style="shape=partialRectangle;connectable=0;fillColor=#E6F3FF;align=left;" parent="row2" vertex="1"><mxGeometry x="210" width="180" height="24" as="geometry" /></mxCell>
        <mxCell id="r2c4" value="" style="shape=partialRectangle;connectable=0;fillColor=#E6F3FF;align=left;" parent="row2" vertex="1"><mxGeometry x="390" width="110" height="24" as="geometry" /></mxCell>
        <mxCell id="r2c5" value="Người nhận thông báo" style="shape=partialRectangle;connectable=0;fillColor=#E6F3FF;align=left;" parent="row2" vertex="1"><mxGeometry x="500" width="300" height="24" as="geometry" /></mxCell>
        <mxCell id="row3" value="" style="shape=tableRow;horizontal=0;fillColor=#ffffff;strokeColor=#000000;" parent="notificationTable" vertex="1"><mxGeometry y="88" width="800" height="24" as="geometry" /></mxCell>
        <mxCell id="r3c1" value="title" style="shape=partialRectangle;connectable=0;fillColor=#ffffff;align=left;" parent="row3" vertex="1"><mxGeometry width="120" height="24" as="geometry" /></mxCell>
        <mxCell id="r3c2" value="String" style="shape=partialRectangle;connectable=0;fillColor=#ffffff;align=left;" parent="row3" vertex="1"><mxGeometry x="120" width="90" height="24" as="geometry" /></mxCell>
        <mxCell id="r3c3" value="required, maxlength: 200" style="shape=partialRectangle;connectable=0;fillColor=#ffffff;align=left;" parent="row3" vertex="1"><mxGeometry x="210" width="180" height="24" as="geometry" /></mxCell>
        <mxCell id="r3c4" value="" style="shape=partialRectangle;connectable=0;fillColor=#ffffff;align=left;" parent="row3" vertex="1"><mxGeometry x="390" width="110" height="24" as="geometry" /></mxCell>
        <mxCell id="r3c5" value="Tiêu đề thông báo" style="shape=partialRectangle;connectable=0;fillColor=#ffffff;align=left;" parent="row3" vertex="1"><mxGeometry x="500" width="300" height="24" as="geometry" /></mxCell>
        <mxCell id="row4" value="" style="shape=tableRow;horizontal=0;fillColor=#E6F3FF;strokeColor=#000000;" parent="notificationTable" vertex="1"><mxGeometry y="112" width="800" height="24" as="geometry" /></mxCell>
        <mxCell id="r4c1" value="message" style="shape=partialRectangle;connectable=0;fillColor=#E6F3FF;align=left;" parent="row4" vertex="1"><mxGeometry width="120" height="24" as="geometry" /></mxCell>
        <mxCell id="r4c2" value="String" style="shape=partialRectangle;connectable=0;fillColor=#E6F3FF;align=left;" parent="row4" vertex="1"><mxGeometry x="120" width="90" height="24" as="geometry" /></mxCell>
        <mxCell id="r4c3" value="required, maxlength: 1000" style="shape=partialRectangle;connectable=0;fillColor=#E6F3FF;align=left;" parent="row4" vertex="1"><mxGeometry x="210" width="180" height="24" as="geometry" /></mxCell>
        <mxCell id="r4c4" value="" style="shape=partialRectangle;connectable=0;fillColor=#E6F3FF;align=left;" parent="row4" vertex="1"><mxGeometry x="390" width="110" height="24" as="geometry" /></mxCell>
        <mxCell id="r4c5" value="Nội dung thông báo" style="shape=partialRectangle;connectable=0;fillColor=#E6F3FF;align=left;" parent="row4" vertex="1"><mxGeometry x="500" width="300" height="24" as="geometry" /></mxCell>
        <mxCell id="row5" value="" style="shape=tableRow;horizontal=0;fillColor=#ffffff;strokeColor=#000000;" parent="notificationTable" vertex="1"><mxGeometry y="136" width="800" height="24" as="geometry" /></mxCell>
        <mxCell id="r5c1" value="type" style="shape=partialRectangle;connectable=0;fillColor=#ffffff;align=left;" parent="row5" vertex="1"><mxGeometry width="120" height="24" as="geometry" /></mxCell>
        <mxCell id="r5c2" value="String" style="shape=partialRectangle;connectable=0;fillColor=#ffffff;align=left;" parent="row5" vertex="1"><mxGeometry x="120" width="90" height="24" as="geometry" /></mxCell>
        <mxCell id="r5c3" value="enum, required, index" style="shape=partialRectangle;connectable=0;fillColor=#ffffff;align=left;" parent="row5" vertex="1"><mxGeometry x="210" width="180" height="24" as="geometry" /></mxCell>
        <mxCell id="r5c4" value="" style="shape=partialRectangle;connectable=0;fillColor=#ffffff;align=left;" parent="row5" vertex="1"><mxGeometry x="390" width="110" height="24" as="geometry" /></mxCell>
        <mxCell id="r5c5" value="Loại thông báo" style="shape=partialRectangle;connectable=0;fillColor=#ffffff;align=left;" parent="row5" vertex="1"><mxGeometry x="500" width="300" height="24" as="geometry" /></mxCell>
        <mxCell id="row6" value="" style="shape=tableRow;horizontal=0;fillColor=#E6F3FF;strokeColor=#000000;" parent="notificationTable" vertex="1"><mxGeometry y="160" width="800" height="24" as="geometry" /></mxCell>
        <mxCell id="r6c1" value="priority" style="shape=partialRectangle;connectable=0;fillColor=#E6F3FF;align=left;" parent="row6" vertex="1"><mxGeometry width="120" height="24" as="geometry" /></mxCell>
        <mxCell id="r6c2" value="String" style="shape=partialRectangle;connectable=0;fillColor=#E6F3FF;align=left;" parent="row6" vertex="1"><mxGeometry x="120" width="90" height="24" as="geometry" /></mxCell>
        <mxCell id="r6c3" value="enum: ['low','normal','high','urgent'], default: 'normal'" style="shape=partialRectangle;connectable=0;fillColor=#E6F3FF;align=left;" parent="row6" vertex="1"><mxGeometry x="210" width="180" height="24" as="geometry" /></mxCell>
        <mxCell id="r6c4" value="'normal'" style="shape=partialRectangle;connectable=0;fillColor=#E6F3FF;align=left;" parent="row6" vertex="1"><mxGeometry x="390" width="110" height="24" as="geometry" /></mxCell>
        <mxCell id="r6c5" value="Mức độ ưu tiên" style="shape=partialRectangle;connectable=0;fillColor=#E6F3FF;align=left;" parent="row6" vertex="1"><mxGeometry x="500" width="300" height="24" as="geometry" /></mxCell>
        <mxCell id="row7" value="" style="shape=tableRow;horizontal=0;fillColor=#ffffff;strokeColor=#000000;" parent="notificationTable" vertex="1"><mxGeometry y="184" width="800" height="24" as="geometry" /></mxCell>
        <mxCell id="r7c1" value="status" style="shape=partialRectangle;connectable=0;fillColor=#ffffff;align=left;" parent="row7" vertex="1"><mxGeometry width="120" height="24" as="geometry" /></mxCell>
        <mxCell id="r7c2" value="String" style="shape=partialRectangle;connectable=0;fillColor=#ffffff;align=left;" parent="row7" vertex="1"><mxGeometry x="120" width="90" height="24" as="geometry" /></mxCell>
        <mxCell id="r7c3" value="enum: ['unread','read','archived'], default: 'unread', index" style="shape=partialRectangle;connectable=0;fillColor=#ffffff;align=left;" parent="row7" vertex="1"><mxGeometry x="210" width="180" height="24" as="geometry" /></mxCell>
        <mxCell id="r7c4" value="'unread'" style="shape=partialRectangle;connectable=0;fillColor=#ffffff;align=left;" parent="row7" vertex="1"><mxGeometry x="390" width="110" height="24" as="geometry" /></mxCell>
        <mxCell id="r7c5" value="Trạng thái thông báo" style="shape=partialRectangle;connectable=0;fillColor=#ffffff;align=left;" parent="row7" vertex="1"><mxGeometry x="500" width="300" height="24" as="geometry" /></mxCell>
        <mxCell id="row8" value="" style="shape=tableRow;horizontal=0;fillColor=#E6F3FF;strokeColor=#000000;" parent="notificationTable" vertex="1"><mxGeometry y="208" width="800" height="24" as="geometry" /></mxCell>
        <mxCell id="r8c1" value="read" style="shape=partialRectangle;connectable=0;fillColor=#E6F3FF;align=left;" parent="row8" vertex="1"><mxGeometry width="120" height="24" as="geometry" /></mxCell>
        <mxCell id="r8c2" value="Boolean" style="shape=partialRectangle;connectable=0;fillColor=#E6F3FF;align=left;" parent="row8" vertex="1"><mxGeometry x="120" width="90" height="24" as="geometry" /></mxCell>
        <mxCell id="r8c3" value="default: false" style="shape=partialRectangle;connectable=0;fillColor=#E6F3FF;align=left;" parent="row8" vertex="1"><mxGeometry x="210" width="180" height="24" as="geometry" /></mxCell>
        <mxCell id="r8c4" value="false" style="shape=partialRectangle;connectable=0;fillColor=#E6F3FF;align=left;" parent="row8" vertex="1"><mxGeometry x="390" width="110" height="24" as="geometry" /></mxCell>
        <mxCell id="r8c5" value="Trường legacy, tương thích ngược" style="shape=partialRectangle;connectable=0;fillColor=#E6F3FF;align=left;" parent="row8" vertex="1"><mxGeometry x="500" width="300" height="24" as="geometry" /></mxCell>
        <mxCell id="row9" value="" style="shape=tableRow;horizontal=0;fillColor=#ffffff;strokeColor=#000000;" parent="notificationTable" vertex="1"><mxGeometry y="232" width="800" height="24" as="geometry" /></mxCell>
        <mxCell id="r9c1" value="project_id" style="shape=partialRectangle;connectable=0;fillColor=#ffffff;align=left;" parent="row9" vertex="1"><mxGeometry width="120" height="24" as="geometry" /></mxCell>
        <mxCell id="r9c2" value="ObjectId" style="shape=partialRectangle;connectable=0;fillColor=#ffffff;align=left;" parent="row9" vertex="1"><mxGeometry x="120" width="90" height="24" as="geometry" /></mxCell>
        <mxCell id="r9c3" value="ref: Project, default: null" style="shape=partialRectangle;connectable=0;fillColor=#ffffff;align=left;" parent="row9" vertex="1"><mxGeometry x="210" width="180" height="24" as="geometry" /></mxCell>
        <mxCell id="r9c4" value="null" style="shape=partialRectangle;connectable=0;fillColor=#ffffff;align=left;" parent="row9" vertex="1"><mxGeometry x="390" width="110" height="24" as="geometry" /></mxCell>
        <mxCell id="r9c5" value="Tham chiếu Project (nếu có)" style="shape=partialRectangle;connectable=0;fillColor=#ffffff;align=left;" parent="row9" vertex="1"><mxGeometry x="500" width="300" height="24" as="geometry" /></mxCell>
        <mxCell id="row10" value="" style="shape=tableRow;horizontal=0;fillColor=#E6F3FF;strokeColor=#000000;" parent="notificationTable" vertex="1"><mxGeometry y="256" width="800" height="24" as="geometry" /></mxCell>
        <mxCell id="r10c1" value="metadata" style="shape=partialRectangle;connectable=0;fillColor=#E6F3FF;align=left;" parent="row10" vertex="1"><mxGeometry width="120" height="24" as="geometry" /></mxCell>
        <mxCell id="r10c2" value="Object" style="shape=partialRectangle;connectable=0;fillColor=#E6F3FF;align=left;" parent="row10" vertex="1"><mxGeometry x="120" width="90" height="24" as="geometry" /></mxCell>
        <mxCell id="r10c3" value="payment_id, subscription_type, action_url, action_text, extra_data" style="shape=partialRectangle;connectable=0;fillColor=#E6F3FF;align=left;" parent="row10" vertex="1"><mxGeometry x="210" width="180" height="24" as="geometry" /></mxCell>
        <mxCell id="r10c4" value="null/{}" style="shape=partialRectangle;connectable=0;fillColor=#E6F3FF;align=left;" parent="row10" vertex="1"><mxGeometry x="390" width="110" height="24" as="geometry" /></mxCell>
        <mxCell id="r10c5" value="Thông tin phụ trợ cho thông báo" style="shape=partialRectangle;connectable=0;fillColor=#E6F3FF;align=left;" parent="row10" vertex="1"><mxGeometry x="500" width="300" height="24" as="geometry" /></mxCell>
        <mxCell id="row11" value="" style="shape=tableRow;horizontal=0;fillColor=#ffffff;strokeColor=#000000;" parent="notificationTable" vertex="1"><mxGeometry y="280" width="800" height="24" as="geometry" /></mxCell>
        <mxCell id="r11c1" value="read_at" style="shape=partialRectangle;connectable=0;fillColor=#ffffff;align=left;" parent="row11" vertex="1"><mxGeometry width="120" height="24" as="geometry" /></mxCell>
        <mxCell id="r11c2" value="Date" style="shape=partialRectangle;connectable=0;fillColor=#ffffff;align=left;" parent="row11" vertex="1"><mxGeometry x="120" width="90" height="24" as="geometry" /></mxCell>
        <mxCell id="r11c3" value="default: null" style="shape=partialRectangle;connectable=0;fillColor=#ffffff;align=left;" parent="row11" vertex="1"><mxGeometry x="210" width="180" height="24" as="geometry" /></mxCell>
        <mxCell id="r11c4" value="null" style="shape=partialRectangle;connectable=0;fillColor=#ffffff;align=left;" parent="row11" vertex="1"><mxGeometry x="390" width="110" height="24" as="geometry" /></mxCell>
        <mxCell id="r11c5" value="Thời điểm đọc thông báo" style="shape=partialRectangle;connectable=0;fillColor=#ffffff;align=left;" parent="row11" vertex="1"><mxGeometry x="500" width="300" height="24" as="geometry" /></mxCell>
        <mxCell id="row12" value="" style="shape=tableRow;horizontal=0;fillColor=#E6F3FF;strokeColor=#000000;" parent="notificationTable" vertex="1"><mxGeometry y="304" width="800" height="24" as="geometry" /></mxCell>
        <mxCell id="r12c1" value="expires_at" style="shape=partialRectangle;connectable=0;fillColor=#E6F3FF;align=left;" parent="row12" vertex="1"><mxGeometry width="120" height="24" as="geometry" /></mxCell>
        <mxCell id="r12c2" value="Date" style="shape=partialRectangle;connectable=0;fillColor=#E6F3FF;align=left;" parent="row12" vertex="1"><mxGeometry x="120" width="90" height="24" as="geometry" /></mxCell>
        <mxCell id="r12c3" value="default: now+30d" style="shape=partialRectangle;connectable=0;fillColor=#E6F3FF;align=left;" parent="row12" vertex="1"><mxGeometry x="210" width="180" height="24" as="geometry" /></mxCell>
        <mxCell id="r12c4" value="now+30d" style="shape=partialRectangle;connectable=0;fillColor=#E6F3FF;align=left;" parent="row12" vertex="1"><mxGeometry x="390" width="110" height="24" as="geometry" /></mxCell>
        <mxCell id="r12c5" value="Hạn thông báo" style="shape=partialRectangle;connectable=0;fillColor=#E6F3FF;align=left;" parent="row12" vertex="1"><mxGeometry x="500" width="300" height="24" as="geometry" /></mxCell>
        <mxCell id="row13" value="" style="shape=tableRow;horizontal=0;fillColor=#ffffff;strokeColor=#000000;" parent="notificationTable" vertex="1"><mxGeometry y="328" width="800" height="24" as="geometry" /></mxCell>
        <mxCell id="r13c1" value="sent_channels" style="shape=partialRectangle;connectable=0;fillColor=#ffffff;align=left;" parent="row13" vertex="1"><mxGeometry width="120" height="24" as="geometry" /></mxCell>
        <mxCell id="r13c2" value="Object" style="shape=partialRectangle;connectable=0;fillColor=#ffffff;align=left;" parent="row13" vertex="1"><mxGeometry x="120" width="90" height="24" as="geometry" /></mxCell>
        <mxCell id="r13c3" value="in_app, email, email_sent_at" style="shape=partialRectangle;connectable=0;fillColor=#ffffff;align=left;" parent="row13" vertex="1"><mxGeometry x="210" width="180" height="24" as="geometry" /></mxCell>
        <mxCell id="r13c4" value="in_app: true, email: false" style="shape=partialRectangle;connectable=0;fillColor=#ffffff;align=left;" parent="row13" vertex="1"><mxGeometry x="390" width="110" height="24" as="geometry" /></mxCell>
        <mxCell id="r13c5" value="Kênh đã gửi thông báo" style="shape=partialRectangle;connectable=0;fillColor=#ffffff;align=left;" parent="row13" vertex="1"><mxGeometry x="500" width="300" height="24" as="geometry" /></mxCell>
        <mxCell id="row14" value="" style="shape=tableRow;horizontal=0;fillColor=#E6F3FF;strokeColor=#000000;" parent="notificationTable" vertex="1"><mxGeometry y="352" width="800" height="24" as="geometry" /></mxCell>
        <mxCell id="r14c1" value="createdAt" style="shape=partialRectangle;connectable=0;fillColor=#E6F3FF;align=left;" parent="row14" vertex="1"><mxGeometry width="120" height="24" as="geometry" /></mxCell>
        <mxCell id="r14c2" value="Date" style="shape=partialRectangle;connectable=0;fillColor=#E6F3FF;align=left;" parent="row14" vertex="1"><mxGeometry x="120" width="90" height="24" as="geometry" /></mxCell>
        <mxCell id="r14c3" value="auto (timestamps)" style="shape=partialRectangle;connectable=0;fillColor=#E6F3FF;align=left;" parent="row14" vertex="1"><mxGeometry x="210" width="180" height="24" as="geometry" /></mxCell>
        <mxCell id="r14c4" value="Date.now" style="shape=partialRectangle;connectable=0;fillColor=#E6F3FF;align=left;" parent="row14" vertex="1"><mxGeometry x="390" width="110" height="24" as="geometry" /></mxCell>
        <mxCell id="r14c5" value="Ngày tạo bản ghi" style="shape=partialRectangle;connectable=0;fillColor=#E6F3FF;align=left;" parent="row14" vertex="1"><mxGeometry x="500" width="300" height="24" as="geometry" /></mxCell>
        <mxCell id="row15" value="" style="shape=tableRow;horizontal=0;fillColor=#ffffff;strokeColor=#000000;" parent="notificationTable" vertex="1"><mxGeometry y="376" width="800" height="24" as="geometry" /></mxCell>
        <mxCell id="r15c1" value="updatedAt" style="shape=partialRectangle;connectable=0;fillColor=#ffffff;align=left;" parent="row15" vertex="1"><mxGeometry width="120" height="24" as="geometry" /></mxCell>
        <mxCell id="r15c2" value="Date" style="shape=partialRectangle;connectable=0;fillColor=#ffffff;align=left;" parent="row15" vertex="1"><mxGeometry x="120" width="90" height="24" as="geometry" /></mxCell>
        <mxCell id="r15c3" value="auto (timestamps)" style="shape=partialRectangle;connectable=0;fillColor=#ffffff;align=left;" parent="row15" vertex="1"><mxGeometry x="210" width="180" height="24" as="geometry" /></mxCell>
        <mxCell id="r15c4" value="Date.now" style="shape=partialRectangle;connectable=0;fillColor=#ffffff;align=left;" parent="row15" vertex="1"><mxGeometry x="390" width="110" height="24" as="geometry" /></mxCell>
        <mxCell id="r15c5" value="Ngày cập nhật bản ghi" style="shape=partialRectangle;connectable=0;fillColor=#ffffff;align=left;" parent="row15" vertex="1"><mxGeometry x="500" width="300" height="24" as="geometry" /></mxCell>
      </root>
    </mxGraphModel>
  </diagram>
</mxfile>
